<svg xmlns="http://www.w3.org/2000/svg" viewBox="0 0 882.14 186.11"><title>Ресурс 2</title><g id="Слой_2" data-name="Слой 2"><g id="Слой_1-2" data-name="Слой 1"><path d="M279.74,183.2H384.67a0,0,0,0,0,0,0V153.24a0,0,0,0,0,0,0H309.75a0,0,0,0,1,0,0V108.24a0,0,0,0,1,0,0h49.92a0,0,0,0,0,0,0V78.24a0,0,0,0,0,0,0H309.75a0,0,0,0,1,0,0V33.24a0,0,0,0,1,0,0h74.92a0,0,0,0,0,0,0V3.24a0,0,0,0,0,0,0H279.74a0,0,0,0,0,0,0V183.16S279.72,183.2,279.74,183.2Z"/><path d="M469.67,120.65,430.53,3.23s0,0,0,0H399s-.05,0,0,0l60,179.92s0,0,0,0h21.56s0,0,0,0l60-179.92s0,0,0,0H508.91s0,0,0,0L469.73,120.65S469.68,120.69,469.67,120.65Z"/><path d="M654.63,118.54,577.75,3.22l0,0h-23a0,0,0,0,0,0,0V183.16a0,0,0,0,0,0,0h29.92a0,0,0,0,0,0,0V67.87a0,0,0,0,1,.07,0l76.89,115.33,0,0h23a0,0,0,0,0,0,0V3.24a0,0,0,0,0,0,0H654.75a0,0,0,0,0,0,0V118.52A0,0,0,0,1,654.63,118.54Z"/><path d="M259.7,55C259.3,26.12,235.19,3.2,206.34,3.2H142.25a0,0,0,0,0,0,0V183.16a0,0,0,0,0,0,0h29.92a0,0,0,0,0,0,0V33.24a0,0,0,0,1,0,0h34.37c12.2,0,22.63,9.46,23.08,21.65A22.53,22.53,0,0,1,207.22,78.2H183a0,0,0,0,0,0,.06l52.46,104.92,0,0h33.46a0,0,0,0,0,0-.06l-39.85-79.69a0,0,0,0,1,0,0A52.58,52.58,0,0,0,259.7,55Z"/><path d="M107,87.28s0,0,0-.06A52.47,52.47,0,0,0,65,3.2H0a0,0,0,0,0,0,0V183.16a0,0,0,0,0,0,0H76.57c28.83,0,53.38-23.58,53.43-52.41A52.48,52.48,0,0,0,107,87.28Zm-77-54a0,0,0,0,1,0,0H65A22.54,22.54,0,0,1,87.49,56.52C87.05,68.72,76.62,78.2,64.41,78.2H30a0,0,0,0,1,0,0Zm46.9,120H30a0,0,0,0,1,0,0V108.24a0,0,0,0,1,0,0H77.5A22.54,22.54,0,0,1,100,131.52C99.54,143.73,89.11,153.2,76.9,153.2Z"/><path d="M711.39,106.16C708,89.49,708.82,65.94,709,53.77a.38.38,0,0,0-.72-.16,92.64,92.64,0,0,0-4.78,12.74,93.85,93.85,0,0,0-3.83,25.8c0,.31,0,.62,0,.93a93.63,93.63,0,0,0,31.66,70.44l1.66,1.42.13.12h0a1.43,1.43,0,0,0,.43.36h0c1,.59.63-2-.44-4.75C724,137.54,718.06,138.51,711.39,106.16Z"/><path d="M882.14,93.08a95.37,95.37,0,0,0-1.19-15A93.73,93.73,0,0,0,856.84,28.8a.7.7,0,0,0-1.17.7c5.51,15.51,10,32.68,13.54,54.27.09.56,1.42,9.23,1.49,9.78,1.6,13.11.29,31.26-1.28,45a.69.69,0,0,0,1.3.41C877.48,125.85,882.14,107.76,882.14,93.08Z"/><path d="M845.25,27.19c-1.15-2.39-2.19-5-3.24-7.49a17,17,0,0,0-7.37-8.3q-3.46-1.94-7.11-3.57a1,1,0,0,0-1.36,1.07c1.22,7,2.39,14.9,3.14,20.33.45,3.3,2.22,11,3.91,21.42,3.11,19,6.87,45.14,11.56,60.35.21.7.42,1.39.62,2.09a261.52,261.52,0,0,1,8.38,44.51v.5a1,1,0,0,0,1.69.68l1.17-1.22a8.35,8.35,0,0,0,2.11-4c6.74-32.61,3.74-51.91,1.48-72.91C857.81,58.09,848.1,33.13,845.25,27.19Z"/><path d="M841.79,123.16c-3-9.24-7.89-25.86-8.95-33.85-1.64-12.39-7.73,10.08-8.78,14.16-.49,1.9-9.08,23.09-15.44,43.45-1.79,5.73-5.6,15-6.93,20-2,7.3-3.05,12.66-3.85,17a1.66,1.66,0,0,0,1.83,2c14.44-1.9,30-7.49,41.7-15.3a8,8,0,0,0,3.39-5,78.8,78.8,0,0,0-.29-33.94C844.08,130.15,843.05,127.06,841.79,123.16Z"/><path d="M824.05,52.35c0-.21,0-.43,0-.64.09-18-4.55-37.34-8.45-46.24L815,4.13A2,2,0,0,0,813.69,3q-1-.27-2-.51a1.17,1.17,0,0,0-1.45,1.2c.4,7.19.7,19.43.41,29.33-.2,6.08-.4,11.44-.6,13.86-.66,8.13-5.73,44.8-11.55,64.25-3.66,12.25-13.48,31.83-15,44.87-.82,6.93-1,13.09-1.42,19.38a42.75,42.75,0,0,0,.56,9.21,1.59,1.59,0,0,0,1.49,1.34c1.8.11,4.29.18,6.15.23a1.61,1.61,0,0,0,1.63-1.46,127.81,127.81,0,0,1,5.26-28.82c3-9.69,6.55-20.48,10.55-31.2C818.68,95.16,823.83,70.82,824.05,52.35Z"/><path d="M741.61,80.66a13.17,13.17,0,0,0,2.63,4.56c4.08,4,5.87-9.85,14.07-29.15,2.82-6.63,6.77-12.58,9.54-19C773,25,778.33,11.59,783.91,1.33a.68.68,0,0,0-.65-1c-.89.08-1.78.17-2.66.27a1.16,1.16,0,0,0-.88.57C776.19,7,768.65,19,762.17,25.91c-8.79,9.46-15.55,12.72-16.49-4-.16-2.89-.29-6.19-.23-8.68a.48.48,0,0,0-.73-.42c-2.05,1.24-4.06,2.55-6,3.94a2.21,2.21,0,0,0-.91,1.51c-.86,6.17-3.13,22-2.3,33.19C736.27,61.77,740.47,77.7,741.61,80.66Z"/><path d="M784.52,35.17C787.83,25.3,791.85,8,794.26,1a.72.72,0,0,0-.66-1c-.88,0-1.77,0-2.67,0h-.83A1.24,1.24,0,0,0,789,.76c-1.92,4.48-8.68,15-13.21,27.92-5.2,14.73-9.29,24.21-10.34,26.72-2.2,5.27-7.07,16.83-11.61,29.56-4.21,11.8-4.6,30-9.65,19.22-2.55-5.42-7-18.31-10.37-33.75-3.09-14.11-5.32-30.35-4.41-45a.39.39,0,0,0-.67-.29c-1,1.07-2.46,2.82-3.31,3.78a2.13,2.13,0,0,0-.55,1.26c-.21,2.17-.83,8.84-1.13,16.6-.19,4.87-1.57,32.42,5.29,53.52.24.73.48,1.46.71,2.18,4.16,12.67,8.06,24.65,10.79,32.12v0c1.61,4.43,3,7,3.26,7.9.66,2.41,14.38,32.72,15.26,20.41.25-3.53-1.83-13.47-1.82-19.82A125.92,125.92,0,0,1,762.06,107c4.7-16.27,18.11-58.7,18.11-58.7S782,42.59,784.52,35.17Z"/><path d="M775.25,152.42c.82-17.79,8.75-26.86,16-49.61,7.11-22.46,9.79-56.11,11.33-68.42.15-1.22.29-2.53.41-3.91.93-10.77,1.8-24.75,1.92-28.56a1,1,0,0,0-.76-1,51.13,51.13,0,0,0-6.61-.72,1,1,0,0,0-1,.92c-.21,6.26-2.29,18.19-3.68,28-.06.41-.13.84-.21,1.3-2.63,15.78-18.39,56-21.17,65-2.6,8.43-8.83,25.27-8.78,49.51,0,1.56-.07,3,0,4.38.7,10.53,3.84,28,7.17,33.65a2.23,2.23,0,0,0,1.42,1l3.17.71a1.14,1.14,0,0,0,1.38-1.24c-1-9.65-.71-16.43-.64-26.5C775.18,155.27,775.19,153.56,775.25,152.42Z"/><path d="M753.09,23.87c4.39-.38,7.58-7,12.37-14,1.6-2.32,2.91-4.67,4-6.32a.54.54,0,0,0-.59-.82,87.51,87.51,0,0,0-15.77,5.64,1.15,1.15,0,0,0-.66,1C752.13,13.56,750.63,24.08,753.09,23.87Z"/><path d="M722.76,91.74c-3.31-22.36-5.31-42.86-3.56-54.49a.52.52,0,0,0-.92-.39q-2.14,2.88-4.06,5.92a3.55,3.55,0,0,0-.54,1.68l-1.41,23.23s-1.93,24.27,3.89,43.62,12.67,33.5,18.14,41.14c6.12,8.55,12.3,18.43,14.88,23a2.24,2.24,0,0,0,.91.87,90.17,90.17,0,0,0,9.26,4.11.38.38,0,0,0,.43-.58,86.87,86.87,0,0,1-6.61-10.34C747,158.26,726.94,119.9,722.76,91.74Z"/></g></g></svg>